<svg xmlns="http://www.w3.org/2000/svg" width="256" height="256"><path fill-opacity=".016" d="M0 128.004v128.004l128.25-.254 128.25-.254.254-127.75L257.008 0H0v128.004m.485.496c0 70.4.119 99.053.265 63.672.146-35.38.146-92.98 0-128C.604 29.153.485 58.1.485 128.5" fill="#1976D2" fill-rule="evenodd"/><path fill-opacity=".131" d="M0 125.011v91.997l128.25-.254 128.25-.254.255-92 .255-92-128.505.258L0 33.015v91.996M.48 125c0 50.875.121 71.687.27 46.25.148-25.438.148-67.063 0-92.5C.601 53.312.48 74.125.48 125M150 87.467c0 2.953-3.283 15.696-5.609 21.772-1.315 3.435-1.513 5.039-.718 5.834 1.255 1.255 3.687-2.882 4.876-8.298 1.287-5.859 3.219-7.777 7.816-7.76 4.622.017 7.232 1.21 6.223 2.843-.368.595-1.09 4.775-1.605 9.288-.514 4.514-1.396 8.667-1.959 9.23-.563.563-1.024 2.059-1.024 3.324 0 2.498-1.403 3.047-2.683 1.05-1.391-2.172-3.286-8.164-3.302-10.441-.018-2.598-1.112-3.485-2.92-2.368-.919.568-.979 1.013-.202 1.493.609.376 1.107 1.953 1.107 3.503 0 2.71 1.932 8.58 4.073 12.376.815 1.445.385 2.563-2.114 5.5-1.726 2.028-4.275 4.646-5.665 5.818-1.886 1.59-2.294 2.547-1.607 3.773.778 1.391 1.773.783 6.475-3.956l5.555-5.6 5.638 5.637c5.051 5.052 7.645 6.217 7.645 3.435 0-.529-2.475-3.312-5.5-6.186-5.869-5.575-6.293-6.811-4.096-11.95 2.382-5.573 3.643-10.973 4.384-18.784.642-6.762.933-7.531 2.962-7.82 1.238-.175 2.25-.963 2.25-1.75 0-1.128-1.799-1.43-8.531-1.43-9.558 0-10.251-.507-8.646-6.32.843-3.053.724-3.565-.928-3.997-1.451-.38-1.895.039-1.895 1.784M56 87.5c0 1.133-1.222 1.5-5 1.5h-5v3.45c0 2.22-.624 3.825-1.75 4.5-1.667.999-1.667 1.113 0 2.41 1.006.782 1.75 2.695 1.75 4.5 0 3.101.062 3.14 5 3.14 4.667 0 5 .167 5 2.5 0 2.364-.3 2.5-5.5 2.5H45v10h5c5.373 0 5.537.127 3.965 3.066-.81 1.513-2.115 1.934-6 1.934-2.731 0-4.965.45-4.965 1s1.575 1 3.5 1c2.704 0 3.5.41 3.5 1.8 0 .99-.559 2.359-1.242 3.042-.988.988-.938 1.433.25 2.184.821.519 2.28.95 3.242.959 1.078.009 1.75.783 1.75 2.015 0 1.1-.547 2-1.217 2-2.224 0-9.783 3.257-9.783 4.215 0 1.35 5.59-.05 11.648-2.917l5.148-2.435 5.203 2.636c2.997 1.519 5.903 2.358 6.852 1.979 1.233-.492.412-1.262-3.249-3.05-2.694-1.315-5.068-2.56-5.275-2.767-.207-.207 1.435-2.188 3.648-4.401C72.996 128.239 72.488 127 64 127c-5.077 0-7-.357-7-1.3 0-2.572 2.5-3.7 8.2-3.7H71v-10h-5.5c-5.2 0-5.5-.136-5.5-2.5 0-2.333.333-2.5 5-2.5 4.938 0 5-.039 5-3.14 0-1.805.744-3.718 1.75-4.5 1.667-1.297 1.667-1.411 0-2.41-1.126-.675-1.75-2.28-1.75-4.5V89h-5c-3.778 0-5-.367-5-1.5 0-.833-.889-1.5-2-1.5s-2 .667-2 1.5m25.242 2.25c-.591 2.063-1.394 5.775-1.785 8.25-.391 2.475-1.76 6.875-3.042 9.779-1.281 2.903-2.072 5.952-1.756 6.775.934 2.433 2.946-.028 4.777-5.841 3-9.527 3.298-9.842 9.007-9.509l5.057.296-.348 7c-.191 3.85-.972 8.8-1.735 11-.763 2.2-1.394 4.739-1.402 5.643-.021 2.347-2.962 3.227-3.644 1.09a55.135 55.135 0 00-1.39-3.733c-.46-1.1-1.12-3.716-1.466-5.814-.385-2.332-1.093-3.65-1.822-3.393-.656.232-1.095 1.049-.975 1.815.657 4.204 2.239 9.848 3.705 13.215 2.135 4.903 1.601 6.369-4.51 12.385-4.217 4.151-4.797 5.143-3.592 6.144 1.174.974 2.362.181 6.485-4.33 2.776-3.037 5.417-5.521 5.87-5.519.453.001 1.678 1.239 2.722 2.75 3.206 4.642 8.554 8.695 9.812 7.437.801-.801-.438-2.615-4.555-6.666-3.11-3.062-5.655-6.443-5.655-7.514 0-1.072 1.125-5.395 2.5-9.607s2.553-9.513 2.618-11.781c.209-7.277 1.19-10.093 3.638-10.442 1.234-.175 2.244-.945 2.244-1.711 0-1.06-2.08-1.46-8.75-1.68L84.5 95.5l.063-4.75c.076-5.785-1.789-6.347-3.321-1M125 87.5c0 1.152-1.278 1.5-5.5 1.5H114v4c0 2.889-.417 4-1.5 4-.825 0-1.5.464-1.5 1.031 0 .568.675 1.291 1.5 1.607.919.353 1.5 1.87 1.5 3.917 0 3.325.025 3.342 5.25 3.643 4.574.263 5.291.592 5.57 2.552.301 2.121-.028 2.25-5.75 2.25H113v10h4.833c5.741 0 6.744.705 4.514 3.169-1.172 1.295-3.076 1.831-6.502 1.831-2.665 0-4.845.45-4.845 1s1.8 1 4 1c4.261 0 5.306 1.672 2.5 4-2.274 1.888-1.825 2.858 1.75 3.785 4.89 1.267 3.951 3.315-2.506 5.467-3.166 1.055-5.486 2.357-5.155 2.892.811 1.312 5.238.242 11.509-2.784l5.181-2.499 4.953 2.569c2.724 1.414 5.586 2.57 6.36 2.57 2.694 0 1.38-1.7-3.092-4-2.475-1.273-4.5-2.521-4.5-2.774 0-.253 1.8-2.207 4-4.342 5.9-5.725 5.423-6.884-2.833-6.884-7.577 0-8.548-.42-7.122-3.084.752-1.405 2.401-1.889 7.215-2.119l6.24-.297.041-4.75.04-4.75h-5.86c-5.505 0-5.841-.136-5.541-2.25.279-1.96.996-2.289 5.57-2.552l5.25-.303v-3.479c0-2.17.564-3.695 1.5-4.054.825-.317 1.5-.978 1.5-1.469 0-.491-.675-.893-1.5-.893-1.083 0-1.5-1.111-1.5-4v-4h-5.5c-4.222 0-5.5-.348-5.5-1.5 0-.825-.675-1.5-1.5-1.5s-1.5.675-1.5 1.5m81.389.645c.886 1.265 1.611 2.637 1.611 3.048 0 .412-5.963.875-13.25 1.028l-13.25.279-.296 6.75c-.273 6.23-.138 6.75 1.75 6.75 1.788 0 2.046-.629 2.046-5v-5h49v5c0 4.371.258 5 2.046 5 1.888 0 2.023-.52 1.75-6.75l-.296-6.75-12.957-.5c-12.826-.495-12.963-.525-13.54-3-.424-1.82-1.349-2.589-3.403-2.827-2.757-.32-2.785-.275-1.211 1.972M49 94c0 2.762.278 3 3.5 3s3.5-.238 3.5-3-.278-3-3.5-3-3.5.238-3.5 3m11.667-2.333c-.367.366-.667 1.716-.667 3 0 2 .5 2.333 3.5 2.333 3.222 0 3.5-.238 3.5-3 0-2.627-.352-3-2.833-3-1.559 0-3.134.3-3.5.667m57.047-.048c-.393.393-.714 1.764-.714 3.048 0 2.062.473 2.333 4.066 2.333 3.847 0 4.05-.149 3.75-2.75-.258-2.245-.873-2.805-3.352-3.047-1.67-.164-3.357.024-3.75.416m11 0c-.393.393-.714 1.764-.714 3.048 0 2.062.473 2.333 4.066 2.333 3.847 0 4.05-.149 3.75-2.75-.258-2.245-.873-2.805-3.352-3.047-1.67-.164-3.357.024-3.75.416M49 102c0 2.762.278 3 3.5 3s3.5-.238 3.5-3-.278-3-3.5-3-3.5.238-3.5 3m11 0c0 2.762.278 3 3.5 3s3.5-.238 3.5-3-.278-3-3.5-3-3.5.238-3.5 3m57.714-2.381c-.393.393-.714 1.764-.714 3.048 0 2.062.473 2.333 4.066 2.333 3.847 0 4.05-.149 3.75-2.75-.258-2.245-.873-2.805-3.352-3.047-1.67-.164-3.357.024-3.75.416m11 0c-.393.393-.714 1.764-.714 3.048 0 2.062.473 2.333 4.066 2.333 3.847 0 4.05-.149 3.75-2.75-.258-2.245-.873-2.805-3.352-3.047-1.67-.164-3.357.024-3.75.416M192 106.5c0 1.262 2.222 1.5 14 1.5 7.7 0 14 .341 14 .757 0 .843-8.592 6.243-9.934 6.243-1.119 0-2.066 2.559-2.066 5.582V123h-14.083c-10.822 0-13.987.29-13.668 1.25.299.9 4.242 1.328 14.083 1.528l13.668.278v7.937c0 7.054-.235 8.062-2.112 9.067-1.162.622-3.187.925-4.5.674-1.571-.301-2.388.009-2.388.905 0 1.833 10.319 1.887 11.834.061.593-.715 1.211-5.102 1.372-9.75l.294-8.45 12.919-.5c8.901-.344 13.045-.88 13.324-1.72.301-.911-2.977-1.292-12.92-1.5l-13.323-.28v-2.852c0-2.406.832-3.316 5.33-5.828 6.45-3.602 9.17-5.84 9.17-7.542 0-.989-3.964-1.278-17.5-1.278-14.889 0-17.5.224-17.5 1.5m-144.638 9c-1.137 2.961.439 4.5 4.607 4.5 3.812 0 4.031-.163 4.031-3s-.219-3-4.031-3c-2.661 0-4.227.51-4.607 1.5M60 117c0 3.046.094 3.108 4.25 2.807 3.785-.273 4.25-.581 4.25-2.807s-.465-2.534-4.25-2.807c-4.156-.301-4.25-.239-4.25 2.807m56.184-.25c.286 2.489.696 2.75 4.316 2.75s4.03-.261 4.316-2.75c.305-2.65.148-2.75-4.316-2.75-4.464 0-4.621.1-4.316 2.75m12 0c.283 2.461.763 2.782 4.566 3.057 4.14.3 4.25.229 4.25-2.75 0-2.963-.14-3.057-4.566-3.057-4.392 0-4.555.105-4.25 2.75m-74.529 14.079c-3.017 3.334-2.256 4.609 3.353 5.617 2.985.536 3.964.179 6.742-2.46 1.787-1.698 3.25-3.515 3.25-4.037 0-.522-2.63-.949-5.845-.949-4.393 0-6.256.454-7.5 1.829m68.151.698c-1.355 2.973-.56 3.999 3.808 4.917 2.488.524 3.745.125 6.25-1.983 4.885-4.111 4.172-5.461-2.885-5.461-5.47 0-6.127.232-7.173 2.527" fill="#1976D2" fill-rule="evenodd"/><path fill-opacity=".147" d="M0 117.511v81.497l128.25-.254 128.25-.254.256-81.5.256-81.5-128.506.258L0 36.015v81.496m.477-.011c0 45.1.123 63.404.273 40.675.15-22.728.15-59.628 0-82C.6 53.804.477 72.4.477 117.5M55.71 87c-.436 1.67-1.364 2-5.616 2C45.05 89 45 89.031 45 92.14c0 1.805-.744 3.718-1.75 4.5-1.631 1.268-1.636 1.449-.078 2.663.92.717 1.82 2.854 2 4.75.324 3.405.392 3.451 5.578 3.749 3.685.212 5.25.719 5.25 1.7 0 1.001-1.635 1.483-5.75 1.698l-5.75.3-.3 5.193-.301 5.193 4.801.307c3.464.222 4.8.725 4.8 1.807 0 1.125-1.439 1.575-5.75 1.8-4.932.257-5.75.577-5.75 2.25 0 1.562.697 1.95 3.5 1.95 3.581 0 4.567 1.533 2.387 3.713C46.434 135.166 47.612 137 50 137c2.451 0 3.643 1.974 1.878 3.112-.758.489-3.047 1.351-5.086 1.915-4.179 1.158-5.016 1.993-3.864 3.857.859 1.389 5.834.105 13.204-3.41 3.456-1.648 3.673-1.625 9.191.986 3.109 1.47 6.108 2.392 6.665 2.048 1.964-1.214.974-3.12-2.238-4.309-6.015-2.227-6.088-2.518-1.767-7.061 2.209-2.322 4.017-5.103 4.017-6.18 0-1.757-.717-1.958-7-1.958-3.85 0-7-.36-7-.8 0-2.074 2.904-3.2 8.252-3.2h5.853l-.303-5.25-.302-5.25-5.75-.3c-4.219-.22-5.75-.686-5.75-1.75 0-1.091 1.362-1.45 5.5-1.45H71v-3.531c0-2.217.559-3.746 1.5-4.107.825-.317 1.5-1.217 1.5-2 0-.784-.675-1.684-1.5-2-.926-.356-1.5-1.875-1.5-3.969V89h-5.094c-4.252 0-5.18-.33-5.616-2-.288-1.1-1.318-2-2.29-2s-2.002.9-2.29 2m24.842 2.193c-.989 6.627-3.793 16.927-5.65 20.754-1.301 2.682-1.42 3.856-.537 5.286 1.085 1.757 1.214 1.742 2.91-.339.976-1.197 1.906-2.001 2.065-1.786.625.842 5.66 17.103 5.66 18.276 0 .685-2.245 3.467-4.988 6.181-5.29 5.233-5.842 6.501-3.633 8.335 1.098.911 2.411.016 6.427-4.378 4.6-5.033 7.194-6.75 7.194-4.762 0 .899 3.596 4.788 7.476 8.086 2.507 2.131 2.904 2.202 4.328.779 1.423-1.424.999-2.123-4.618-7.602-5.88-5.736-7.246-8.445-5.331-10.573 1.486-1.649 3.954-10.717 4.614-16.95.996-9.396 1.369-10.5 3.55-10.5 1.446 0 1.981-.675 1.981-2.5 0-2.472-.095-2.5-8.576-2.5h-8.575l.296-4.75c.261-4.191.046-4.786-1.827-5.057-1.805-.261-2.219.338-2.766 4M124 87c-.825 1.542-2.094 2-5.535 2-4.305 0-4.465.109-4.465 3.031 0 1.772-.623 3.271-1.5 3.607-.825.317-1.5 1.38-1.5 2.362 0 .982.675 2.045 1.5 2.362.941.361 1.5 1.89 1.5 4.107V108h5c3.701 0 5 .377 5 1.45 0 1.064-1.531 1.53-5.75 1.75l-5.75.3v10l4.775.5c2.626.275 4.763.838 4.75 1.25a61.56 61.56 0 00-.025 1.7c0 .523-2.588 1.085-5.75 1.25-4.311.225-5.75.675-5.75 1.8 0 1.018 1.233 1.601 3.832 1.815 3.143.259 3.707.618 3.136 2-1.759 4.263-1.707 5.185.293 5.185 1.097 0 2.528.643 3.18 1.429.985 1.187.245 1.726-4.378 3.183-5.251 1.655-6.891 3.449-4.503 4.925.583.36 4.552-.787 8.82-2.549l7.76-3.204 5.147 2.608c5.977 3.029 6.793 3.145 7.584 1.084.414-1.079-.723-2.159-3.893-3.699-2.463-1.197-4.478-2.503-4.478-2.904 0-.4 1.042-1.548 2.315-2.55 3.151-2.482 5.999-7.005 5.212-8.279-.355-.574-3.784-1.044-7.621-1.044-6.666 0-6.929-.089-5.906-2 .888-1.66 2.094-2 7.087-2h6.018l-.303-5.25-.302-5.25-5.5-.5c-3.025-.275-5.5-.95-5.5-1.5s2.475-1.225 5.5-1.5l5.5-.5.31-3.75c.203-2.453.809-3.75 1.75-3.75 1.903 0 1.856-2.627-.06-3.362-.941-.361-1.5-1.89-1.5-4.107V89h-5.383c-4.543 0-5.465-.312-5.907-2-.287-1.1-1.224-2-2.081-2s-2.04.9-2.629 2m25.621-.25c-.283.963-.806 3.55-1.163 5.75-.942 5.812-3.626 14.522-5.589 18.133-1.255 2.307-1.409 3.427-.586 4.25 1.628 1.628 3.717 1.366 3.717-.466 0-3.54 2.433-.43 4.02 5.137.933 3.27 2.214 7.225 2.848 8.789 1.035 2.551.837 3.242-1.928 6.733-1.694 2.139-4.203 4.773-5.575 5.852-2.147 1.688-2.332 2.265-1.33 4.137 1.129 2.11 1.339 2.002 6.954-3.554l5.79-5.73 5.702 5.656c4.59 4.554 5.976 5.429 7.11 4.487.775-.643 1.409-1.52 1.409-1.95 0-.43-2.797-3.485-6.216-6.79-5.738-5.545-6.124-6.188-5.021-8.346 2.869-5.61 6.235-19.384 6.236-25.518.001-2.537.456-3.246 2.251-3.5 1.477-.21 2.25-1.007 2.25-2.32 0-1.827-.763-2.025-8.838-2.29l-8.839-.29.683-4.96c.624-4.539.51-4.96-1.345-4.96-1.114 0-2.258.787-2.54 1.75m55.635-.5a85.76 85.76 0 011.174 3.5l.705 2.25H181v7.5c0 6.833.178 7.5 2 7.5 1.727 0 2-.667 2-4.883 0-4.219.306-4.966 2.25-5.487 1.238-.331 11.25-.603 22.25-.603s21.012.272 22.25.603c1.944.521 2.25 1.268 2.25 5.487 0 4.216.273 4.883 2 4.883 1.822 0 2-.667 2-7.5V92h-25.102l-1.462-3.5c-1.139-2.724-2.038-3.5-4.056-3.5-1.659 0-2.425.451-2.124 1.25M49 94.563c0 2.29.347 2.53 3.25 2.25 2.491-.24 3.325-.838 3.57-2.563.28-1.973-.121-2.25-3.25-2.25-3.165 0-3.57.291-3.57 2.563m11.18-.313c.245 1.725 1.079 2.323 3.57 2.563 2.903.28 3.25.04 3.25-2.25C67 92.291 66.595 92 63.43 92c-3.129 0-3.53.277-3.25 2.25m57.2-.798c-.868 2.262.466 3.548 3.679 3.548 2.47 0 2.941-.4 2.941-2.5 0-2.117-.465-2.5-3.031-2.5-1.728 0-3.271.625-3.589 1.452M129 94.5c0 2.111.467 2.5 3 2.5s3-.389 3-2.5c0-2.111-.467-2.5-3-2.5s-3 .389-3 2.5m-79.82 7.75c.251 1.762.97 2.25 3.32 2.25 2.35 0 3.069-.488 3.32-2.25.281-1.98-.118-2.25-3.32-2.25s-3.601.27-3.32 2.25m11 0c.251 1.762.97 2.25 3.32 2.25 2.35 0 3.069-.488 3.32-2.25.281-1.98-.118-2.25-3.32-2.25s-3.601.27-3.32 2.25m21.414 2.428c-1.97 5.782-1.989 6.687-.122 5.971 1.066-.409 1.79.599 2.618 3.643 2.284 8.39 2.553 9.089 3.636 9.45 1.441.48 4.199-9.13 4.961-17.291l.602-6.451H83.188l-1.594 4.678M117 101.981c0 1.267.881 2.202 2.443 2.594 3.04.763 4.557-.114 4.557-2.634 0-1.552-.702-1.941-3.5-1.941-2.822 0-3.5.384-3.5 1.981m11.775-1.423c-.306.307-.329 1.432-.05 2.5.355 1.356 1.378 1.942 3.392 1.942 2.409 0 2.883-.411 2.883-2.5 0-2.078-.478-2.5-2.833-2.5-1.559 0-3.085.251-3.392.558m21.312 3.546c-.676 2.257-1.471 4.732-1.765 5.5-.353.92.176 1.396 1.552 1.396 1.422 0 2.253.797 2.607 2.5.285 1.375.772 3.701 1.08 5.169.795 3.779 3.227 7.122 3.822 5.254 2.206-6.937 3.583-13.347 3.902-18.173l.38-5.75h-10.348l-1.23 4.104M191.5 105c-1.496 2.42 1.222 3 14.059 3 7.393 0 13.441.353 13.441.785 0 .432-2.473 2.119-5.497 3.75-4.924 2.656-5.496 3.303-5.5 6.215L208 122h-13.3c-13.35 0-16.146.674-15.015 3.622.414 1.079 3.541 1.378 14.422 1.378H208V141.909l-3.286.617c-1.808.339-3.945.472-4.75.295-.904-.198-1.464.444-1.464 1.679 0 1.705.767 2.044 5.199 2.301C211.472 147.25 213 145.31 213 135v-8h12.893c11.121 0 12.981-.229 13.534-1.67 1.053-2.744-1.317-3.299-14.177-3.315-12.24-.015-12.25-.017-12.25-2.401 0-1.891 1.451-3.248 7-6.545 5.637-3.349 7-4.636 7-6.614V104h-17.441c-10.549 0-17.685.395-18.059 1m-142.25 9.641c-.687.289-1.25 1.388-1.25 2.442 0 1.575.726 1.917 4.07 1.917 3.648 0 4.036-.233 3.75-2.25-.32-2.249-3.677-3.327-6.57-2.109m11.417.026c-.367.366-.667 1.491-.667 2.5 0 1.472.788 1.833 4 1.833 3.258 0 4-.351 4-1.893 0-2.571-5.404-4.369-7.333-2.44m57.046-.046c-.392.392-.713 1.537-.713 2.546 0 1.435.775 1.833 3.57 1.833 3.129 0 3.53-.277 3.25-2.25-.222-1.557-1.102-2.341-2.857-2.546-1.396-.163-2.859.025-3.25.417m12.537.02c-.687.289-1.25 1.388-1.25 2.442 0 1.527.718 1.917 3.531 1.917 2.261 0 3.745-.555 4.124-1.543.326-.849.423-1.712.216-1.919-.773-.773-5.418-1.402-6.621-.897m-76.34 16.967c-1.134 1.367-1.048 1.818.569 3 1.047.766 2.76 1.392 3.808 1.392 2.157 0 7.713-3.651 7.713-5.068 0-1.684-10.624-1.09-12.09.676m68.757-.941c-1.236 1.236-.679 4.114.915 4.726 3.106 1.192 6.103.571 8.244-1.707 1.196-1.273 2.174-2.623 2.174-3 0-.883-10.452-.901-11.333-.019" fill="#1976D2" fill-rule="evenodd"/><path fill-opacity=".452" d="M0 118.011v80.997l128.25-.254 128.25-.254.256-81 .256-81-128.506.258L0 37.015v80.996M.477 118c0 44.825.123 63.163.273 40.75.15-22.412.15-59.087 0-81.5C.6 54.838.477 73.175.477 118m54.825-32.049c-.408 1.562-1.537 2.011-5.656 2.25-4.976.289-5.156.404-5.454 3.475-.169 1.746-.957 3.714-1.75 4.372-1.869 1.552-1.842 3.584.058 4.314.941.361 1.5 1.89 1.5 4.107V108h5.5c4.222 0 5.5.348 5.5 1.5 0 1.152-1.278 1.5-5.5 1.5H44v12h5.122c4.44 0 4.957.2 3.878 1.5-.828.997-3.07 1.5-6.692 1.5-5.077 0-5.425.153-5.128 2.25.257 1.805 1.058 2.311 4.054 2.559 3.727.309 3.731.315 2.115 2.782-.891 1.359-1.446 2.591-1.234 2.738.212.146 1.731.847 3.377 1.557l2.991 1.291-3.356 1.412c-1.846.776-3.925 1.411-4.619 1.411-.695 0-1.774.615-2.398 1.367-.863 1.04-.772 1.669.38 2.625 1.828 1.517 5.902.832 11.692-1.966 5.33-2.575 5.848-2.551 11.949.54 4.682 2.373 5.199 2.445 6.843.957 1.59-1.439 1.842-1.446 2.371-.066 1.047 2.728 3.393 1.665 8.035-3.642l4.536-5.185 5.557 5.256c5.78 5.467 8.788 6.26 9.332 2.461.205-1.427-.656-2.817-2.603-4.203-1.601-1.14-4.149-3.697-5.663-5.682-2.71-3.552-2.729-3.678-1.194-7.786C95.711 120.34 98 109.408 98 104.438c0-4.067.209-4.438 2.5-4.438 2 0 2.5-.5 2.5-2.5 0-2.481-.067-2.5-9-2.5-9.714 0-9.72-.004-8.099-5.655C86.902 85.856 85.814 84 82.769 84c-2.053 0-2.053.001-3.719 9-1.3 7.023-3.891 15.89-5.115 17.5-1.212 1.596-12.935.609-12.935-1.089 0-1.044 1.432-1.411 5.5-1.411H72v-3.531c0-2.217.559-3.746 1.5-4.107 1.908-.733 1.955-3.973.068-4.698-.788-.302-1.576-2.038-1.75-3.857-.31-3.228-.441-3.314-5.464-3.606-4.119-.239-5.248-.688-5.656-2.25C60.388 84.767 59.328 84 58 84c-1.328 0-2.388.767-2.698 1.951M123.5 86c-.522 1.644-1.513 2-5.567 2H113v3.393c0 2.094-.574 3.613-1.5 3.969-.825.316-1.5 1.503-1.5 2.638s.675 2.322 1.5 2.638c.919.353 1.5 1.87 1.5 3.917 0 3.303.056 3.344 5.013 3.643 6.737.406 6.386 2.227-.501 2.602l-5.512.3V123h5c4.887 0 6.575 1.182 3.418 2.393-.87.334-3.826.607-6.569.607-4.601 0-4.963.175-4.669 2.25.257 1.807 1.058 2.311 4.07 2.56 3.64.302 4.792 1.428 2.75 2.69-1.861 1.15-1.014 3.458 1.5 4.089 4.359 1.094 2.859 2.536-4.5 4.323-1.626.395-2.5 1.304-2.5 2.598 0 3.024 4.602 3.048 11.133.058 3.085-1.413 6.117-2.575 6.738-2.584.621-.008 3.527 1.229 6.458 2.75 5.037 2.614 5.4 2.669 6.632.987 1.125-1.537 1.383-1.571 1.889-.25.323.841 1.217 1.529 1.987 1.529 1.523 0 10.663-8.703 10.663-10.153 0-.49 2.485 1.594 5.522 4.631 5.724 5.725 8.91 6.886 9.945 3.626.45-1.419-.918-3.346-5.433-7.653-3.318-3.165-6.034-6.181-6.034-6.702 0-.521.636-2.365 1.414-4.098 2.721-6.065 3.97-11.212 4.526-18.651.509-6.817.765-7.529 2.81-7.82 1.629-.231 2.25-.99 2.25-2.75 0-2.379-.175-2.43-8.333-2.43-4.584 0-8.569-.235-8.856-.522-.287-.287-.037-2.336.555-4.554.881-3.3.809-4.202-.395-4.963-3.357-2.123-4.829-1.108-5.491 3.789-.684 5.061-1.565 8.603-4.229 17l-1.665 5.25h-6.876c-5.054 0-6.768-.331-6.465-1.25.24-.729 2.569-1.376 5.584-1.552l5.171-.303v-3.479c0-2.17.564-3.695 1.5-4.054.825-.317 1.5-1.38 1.5-2.362 0-.982-.675-2.045-1.5-2.362-.941-.361-1.5-1.89-1.5-4.107V88h-5.383c-4.543 0-5.465-.312-5.907-2-.306-1.17-1.364-2-2.549-2-1.148 0-2.301.867-2.661 2m81.647-1.112c-1.039.659-1.097 1.336-.25 2.919.607 1.134 1.103 2.303 1.103 2.597 0 .295-5.738.662-12.75.816l-12.75.28v8c0 7.867.042 8 2.5 8 2.311 0 2.523-.397 2.802-5.25l.303-5.25h46.79l.303 5.25c.279 4.853.491 5.25 2.802 5.25 2.458 0 2.5-.133 2.5-8v-8l-12.578-.279-12.579-.278-1.655-3.472c-1.647-3.453-3.816-4.31-6.541-2.583M50 94c0 1.467.667 2 2.5 2s2.5-.533 2.5-2-.667-2-2.5-2-2.5.533-2.5 2m11-.066c0 1.64.634 2.066 3.073 2.066 2.387 0 3-.391 2.742-1.75-.2-1.055-1.42-1.876-3.074-2.066-2.206-.255-2.741.087-2.741 1.75m57.667-1.267c-1.518 1.518-.52 3.333 1.833 3.333 1.833 0 2.5-.533 2.5-2 0-1.951-2.841-2.825-4.333-1.333m11.042-.043c-1.717 1.718-.556 3.376 2.364 3.376 2.388 0 2.999-.391 2.74-1.75-.341-1.79-3.829-2.901-5.104-1.626m-79.973 7.974c-1.246 1.245.575 3.402 2.871 3.402 1.726 0 2.393-.557 2.393-2 0-1.429-.667-2-2.333-2-1.284 0-2.603.269-2.931.598M61 102c0 1.737.511 2.074 2.75 1.816 1.637-.188 2.75-.923 2.75-1.816s-1.113-1.628-2.75-1.816c-2.239-.258-2.75.079-2.75 1.816m22.122.25c-1.403 3.809-2.325 8.286-1.545 7.507 1.283-1.284 3.423 1.374 3.423 4.251 0 1.519.641 4.277 1.425 6.127 1.125 2.655 1.547 2.996 2 1.615.316-.963.863-2.537 1.215-3.5 1.021-2.796 3.07-17.206 2.524-17.753-.274-.273-2.233-.497-4.355-.497-3.089 0-4.024.449-4.687 2.25M118.5 101c-.906 1.466.347 3 2.452 3 1.853 0 3.416-2.299 2.312-3.402-.955-.956-4.089-.691-4.764.402m10.69.75c.213 1.104 1.25 1.75 2.81 1.75s2.597-.646 2.81-1.75c.263-1.367-.351-1.75-2.81-1.75s-3.073.383-2.81 1.75m21.908 1.399c-1.484 4.257-1.382 6.851.27 6.851.821 0 1.581 1.502 1.899 3.75.292 2.063 1.061 5.1 1.709 6.75l1.179 3 1.282-3.029c1.342-3.173 3.563-14.583 3.563-18.303 0-1.896-.553-2.168-4.402-2.168-4.039 0-4.493.26-5.5 3.149m39.412 1.82c-.352 1.107-.358 2.467-.016 3.022.366.591 5.776 1.009 13.065 1.009 6.843 0 12.441.395 12.441.879 0 .483-1.388 1.453-3.085 2.156-4.275 1.771-5.915 3.653-5.913 6.786l.002 2.679-11.681-.314c-14.749-.395-16.55.006-16.136 3.599l.313 2.715 14 .275 14 .275-.5 6.725-.5 6.725-4.75.305c-4.783.307-5.254.718-4.143 3.613.75 1.955 12.309 2.266 14.193.382.74-.74 1.2-4.371 1.2-9.471v-8.271l13.25-.279c13.114-.276 13.253-.304 13.587-2.666.186-1.313-.264-2.781-1-3.263-.735-.481-6.737-.816-13.337-.743-10.147.112-12.048-.109-12.312-1.43-.188-.939 1.007-2.237 3-3.257 1.822-.933 5.246-3.075 7.609-4.761 3.406-2.43 4.235-3.593 4-5.612l-.297-2.547-18.176-.272c-17.459-.262-18.2-.193-18.814 1.741M77.5 116c-.651 2.052-2.5 2.792-2.5 1 0-.55-.421-1-.937-1-.515 0-1.077 1.463-1.25 3.25l-.313 3.25-6.75.296c-5.104.223-6.75.65-6.75 1.75 0 1.134 1.542 1.454 7 1.454 6.103 0 7 .233 7 1.82 0 1.001-1.575 3.66-3.5 5.909-1.925 2.249-3.5 4.287-3.5 4.528 0 .242 1.768 1.236 3.928 2.211 3.844 1.733 3.992 1.725 6.929-.367 3.199-2.277 7.147-7.931 7.137-10.219-.004-.76-.651-2.617-1.438-4.127-.788-1.509-1.736-4.772-2.107-7.25-.718-4.787-1.905-5.795-2.949-2.505m69.005-.676c-.561 1.319-1.431 1.66-3.141 1.231-2.146-.538-2.364-.272-2.364 2.88v3.474l-6.67.295c-4.223.188-6.822.755-7.084 1.546-.304.921 1.439 1.25 6.612 1.25 3.863 0 7.314.47 7.669 1.044.759 1.228-1.163 4.358-5.049 8.221-1.53 1.521-2.6 2.914-2.38 3.096 1.116.92 7.357 3.639 8.353 3.639.629 0 2.721-1.687 4.65-3.75 6.439-6.885 6.361-6.65 4.122-12.495-1.107-2.89-2.447-6.83-2.977-8.755-.795-2.886-1.101-3.18-1.741-1.676m-97.32 1.426c.2 1.055 1.42 1.876 3.074 2.066 2.206.255 2.741-.087 2.741-1.75 0-1.64-.634-2.066-3.073-2.066-2.387 0-3 .391-2.742 1.75m11.815.316c0 1.663.535 2.005 2.741 1.75 1.654-.19 2.874-1.011 3.074-2.066.258-1.359-.355-1.75-2.742-1.75-2.439 0-3.073.426-3.073 2.066M117.5 116c-.994 1.608.425 3 3.059 3 1.774 0 2.441-.546 2.441-2s-.667-2-2.441-2c-1.343 0-2.719.45-3.059 1m11.69.75c.231 1.199 1.274 1.75 3.31 1.75s3.079-.551 3.31-1.75c.271-1.408-.375-1.75-3.31-1.75s-3.581.342-3.31 1.75M54.5 132c-2.026 3.278 4.944 4.112 8.639 1.033l2.361-1.966-5.191-.034c-2.855-.018-5.469.417-5.809.967m67.931.112c-1.898 3.07 6.362 3.879 9.069.888 1.787-1.975 1.747-2-3.286-2-2.803 0-5.405.5-5.783 1.112" fill="#1976D2" fill-rule="evenodd"/></svg>